<svg xmlns="http://www.w3.org/2000/svg" viewBox="0 0 306 260" role="img" aria-label="rsvp">
<g transform="translate(0,198)">
<path fill="#0B0B0B" d="M12.8 0.0Q10.0 0.0 10.600000000000001 -2.6L29.6 -82.4Q30.6 -86.80000000000001 29.900000000000002 -89.30000000000001Q29.200000000000003 -91.80000000000001 26.200000000000003 -91.80000000000001Q22.6 -91.80000000000001 18.3 -86.5Q14.0 -81.2 8.6 -66.4Q7.800000000000001 -63.800000000000004 5.800000000000001 -63.800000000000004Q2.8000000000000003 -63.800000000000004 4.2 -67.4Q8.6 -81.2 13.5 -89.0Q18.400000000000002 -96.80000000000001 23.400000000000002 -100.0Q28.400000000000002 -103.2 32.6 -103.2Q39.2 -103.2 42.0 -98.30000000000001Q44.800000000000004 -93.4 42.2 -82.2L40.0 -72.8Q39.800000000000004 -71.4 40.60000000000001 -71.2Q41.400000000000006 -71.0 42.0 -72.2Q49.6 -89.60000000000001 55.8 -96.4Q62.0 -103.2 70.0 -103.2Q75.4 -103.2 78.10000000000001 -100.30000000000001Q80.80000000000001 -97.4 80.80000000000001 -92.4Q80.80000000000001 -87.4 78.4 -84.4Q76.0 -81.4 72.2 -81.4Q69.0 -81.4 67.6 -83.0Q66.2 -84.60000000000001 65.5 -86.70000000000002Q64.8 -88.80000000000001 64.0 -90.4Q63.2 -92.0 61.400000000000006 -92.0Q58.400000000000006 -92.0 53.60000000000001 -84.4Q48.800000000000004 -76.80000000000001 43.300000000000004 -63.900000000000006Q37.800000000000004 -51.0 32.7 -35.0Q27.6 -19.0 23.8 -2.2Q23.200000000000003 0.0 21.0 0.0Z"/>
<path fill="#0B0B0B" d="M96.80000000000001 1.8Q90.20000000000002 1.8 82.9 -0.20000000000000007Q75.60000000000001 -2.2 71.80000000000001 -5.2Q70.4 -6.4 70.60000000000001 -8.8L75.00000000000001 -35.0Q75.4 -37.6 77.4 -37.6Q79.60000000000001 -37.6 79.60000000000001 -34.800000000000004L80.00000000000001 -25.200000000000003Q80.4 -13.8 85.5 -8.5Q90.60000000000001 -3.2 98.00000000000001 -3.2Q104.4 -3.2 109.0 -7.300000000000001Q113.60000000000001 -11.4 113.60000000000001 -19.400000000000002Q113.60000000000001 -24.0 112.20000000000002 -27.9Q110.80000000000001 -31.8 107.80000000000001 -36.300000000000004Q104.80000000000001 -40.800000000000004 99.60000000000001 -47.2Q92.80000000000001 -56.0 89.50000000000001 -62.300000000000004Q86.20000000000002 -68.60000000000001 86.20000000000002 -75.4Q86.20000000000002 -88.0 94.10000000000002 -95.6Q102.00000000000001 -103.2 114.20000000000002 -103.2Q119.60000000000001 -103.2 124.70000000000002 -101.6Q129.8 -100.0 133.20000000000002 -96.80000000000001Q135.0 -95.4 134.4 -93.2L128.8 -66.4Q128.20000000000002 -63.800000000000004 126.4 -63.800000000000004Q124.60000000000001 -63.800000000000004 124.20000000000002 -66.60000000000001L123.60000000000001 -76.2Q122.80000000000001 -88.2 120.50000000000001 -93.4Q118.20000000000002 -98.60000000000001 111.0 -98.60000000000001Q104.60000000000001 -98.60000000000001 100.60000000000001 -94.20000000000002Q96.60000000000001 -89.80000000000001 96.60000000000001 -83.60000000000001Q96.60000000000001 -77.0 100.20000000000002 -71.5Q103.80000000000001 -66.0 110.0 -57.6Q118.20000000000002 -46.800000000000004 121.10000000000002 -40.400000000000006Q124.00000000000001 -34.0 124.00000000000001 -27.400000000000002Q124.00000000000001 -19.0 120.30000000000001 -12.4Q116.60000000000001 -5.800000000000001 110.4 -2.0000000000000004Q104.20000000000002 1.8 96.80000000000001 1.8Z"/>
<path fill="#FC0210" d="M164.2 1.8Q154.4 1.8 149.60000000000002 -5.6Q144.8 -13.0 147.8 -24.6L163.2 -82.4Q165.8 -91.80000000000001 160.0 -91.80000000000001Q155.8 -91.80000000000001 151.7 -85.80000000000001Q147.6 -79.80000000000001 142.8 -66.2Q142.0 -63.800000000000004 140.0 -63.800000000000004Q139.0 -63.800000000000004 138.4 -64.7Q137.8 -65.60000000000001 138.2 -67.0Q149.8 -103.2 167.2 -103.2Q174.0 -103.2 176.4 -97.6Q178.8 -92.0 176.2 -82.2L160.4 -22.6Q158.2 -14.200000000000001 160.1 -9.700000000000001Q162.0 -5.2 167.0 -5.2Q172.8 -5.2 179.3 -10.8Q185.8 -16.400000000000002 191.60000000000002 -25.4Q197.4 -34.4 201.0 -45.2Q204.60000000000002 -56.0 204.60000000000002 -66.4Q204.60000000000002 -74.8 202.8 -79.7Q201.0 -84.60000000000001 199.1 -88.0Q197.2 -91.4 197.2 -95.4Q197.2 -103.2 204.0 -103.2Q213.60000000000002 -103.2 213.60000000000002 -82.0Q213.60000000000002 -66.8 209.20000000000002 -51.9Q204.8 -37.0 197.60000000000002 -24.9Q190.4 -12.8 181.7 -5.5Q173.0 1.8 164.2 1.8Z"/>
<path fill="#0B0B0B" d="M201.20000000000002 41.0Q198.6 41.0 198.6 38.800000000000004Q198.6 36.800000000000004 201.8 36.4L204.6 36.0Q208.6 35.4 210.5 33.7Q212.4 32.0 213.4 27.6L240.0 -87.2Q240.4 -88.80000000000001 239.5 -89.70000000000002Q238.60000000000002 -90.60000000000001 237.0 -89.60000000000001Q235.0 -88.60000000000001 233.2 -87.5Q231.4 -86.4 229.6 -85.2Q227.8 -84.0 226.60000000000002 -84.5Q225.4 -85.0 225.4 -86.4Q225.4 -87.80000000000001 227.4 -89.2Q233.0 -93.0 239.0 -95.80000000000001Q242.4 -97.4 243.20000000000002 -101.0L245.8 -112.4Q246.8 -116.60000000000001 251.0 -116.60000000000001H254.60000000000002Q257.0 -116.60000000000001 258.2 -115.20000000000002Q259.4 -113.80000000000001 258.8 -111.2L257.4 -105.4Q256.8 -102.0 260.0 -102.60000000000001Q264.6 -103.2 268.8 -103.2Q283.6 -103.2 293.0 -94.80000000000001Q302.4 -86.4 302.4 -69.0Q302.4 -55.400000000000006 297.4 -42.7Q292.4 -30.0 284.2 -20.0Q276.0 -10.0 266.2 -4.1Q256.4 1.8 246.60000000000002 1.8Q241.20000000000002 1.8 236.4 -0.4Q233.4 -1.8 232.8 1.2000000000000002L226.8 27.6Q225.8 32.0 226.9 33.400000000000006Q228.0 34.800000000000004 231.8 35.4L237.0 36.2Q240.60000000000002 36.800000000000004 240.60000000000002 38.6Q240.60000000000002 41.0 237.20000000000002 41.0ZM238.4 -23.0Q234.8 -3.2 247.0 -3.2Q254.0 -3.2 261.2 -9.1Q268.4 -15.0 274.6 -24.900000000000002Q280.8 -34.800000000000004 284.6 -47.2Q288.4 -59.6 288.4 -72.60000000000001Q288.4 -86.0 282.6 -91.9Q276.8 -97.80000000000001 265.6 -97.80000000000001Q255.60000000000002 -97.80000000000001 254.20000000000002 -91.0Z"/>
</g></svg>